<?xml version="1.0" encoding="UTF-8"?>
<svg id="Layer_1" data-name="Layer 1" xmlns="http://www.w3.org/2000/svg" viewBox="0 0 703.55 343.84">
  <defs>
    <style>
      .cls-1 {
        fill: #15263e;
      }

      .cls-2 {
        fill: #7bbb59;
      }
    </style>
  </defs>
  <g>
    <path class="cls-1" d="M156.51,137.56c0,13.79-8.61,21.81-23.56,21.81h-10.45v16.21h-15.29v-58.57h25.74c14.96,0,23.56,7.52,23.56,20.55ZM141.97,138.06c0-5.76-3.59-8.86-9.78-8.86h-9.69v17.96h9.69c6.18,0,9.78-3.18,9.78-9.11Z"/>
    <path class="cls-1" d="M223.61,146.25c0,17.13-13.54,30-31.67,30s-31.67-12.87-31.67-30,13.54-29.66,31.67-29.66,31.67,12.7,31.67,29.66ZM175.98,146.33c0,9.53,7.44,16.88,16.13,16.88s15.79-7.35,15.79-16.88-7.02-16.71-15.79-16.71-16.13,7.19-16.13,16.71Z"/>
    <path class="cls-1" d="M287.62,146.25c0,17.46-12.78,29.33-31.75,29.33h-24.65v-58.57h25.23c18.55,0,31.17,11.87,31.17,29.25ZM271.99,146.42c0-10.11-6.6-16.96-15.88-16.96h-9.61v33.76h10.36c8.86,0,15.12-6.77,15.12-16.79Z"/>
    <path class="cls-1" d="M307.51,176.24c-8.44,0-15.21-3.43-20.39-9.44l7.02-10.44c4.26,4.43,8.86,6.6,12.28,6.6,3.76,0,6.1-2.34,6.1-6.77v-26.57h-20.05v-12.62h35.43v39.52c0,12.53-7.85,19.72-20.39,19.72Z"/>
    <path class="cls-1" d="M384.47,117v12.2h-30.92v10.95h27.91v12.12l-27.91.08v11.03h31.75v12.2h-47.04v-58.57h46.21Z"/>
    <path class="cls-1" d="M439.79,117v12.62h-17.55v45.96h-15.29v-45.96h-17.38v-12.62h50.22Z"/>
  </g>
  <path class="cls-1" d="M596.34,146.25c0,17.13-13.54,30-31.67,30s-31.67-12.87-31.67-30,13.54-29.66,31.67-29.66,31.67,12.7,31.67,29.66ZM548.71,146.33c0,9.53,7.44,16.88,16.13,16.88s15.79-7.35,15.79-16.88-7.02-16.71-15.79-16.71-16.13,7.19-16.13,16.71Z"/>
  <g>
    <path class="cls-1" d="M111.19,201.06l11.12,14.91v-14.91h3.44v20.75h-3.44l-11.06-14.88v14.88h-3.5v-20.75h3.44Z"/>
    <path class="cls-1" d="M140.48,221.82v-1.93c-1.13,1.39-2.93,2.08-5.22,2.08-3.41,0-5.54-2.1-5.54-4.89s2.16-4.71,5.96-4.74h4.77v-.47c0-1.99-1.27-3.17-3.77-3.17-1.51,0-3.08.53-4.65,1.6l-1.39-2.37c2.19-1.3,3.79-1.99,6.79-1.99,4.06,0,6.34,2.08,6.37,5.54l.03,10.35h-3.35ZM140.45,216.27v-1.45h-4.27c-2.22,0-3.26.59-3.26,2.1,0,1.42,1.16,2.34,3.05,2.34,2.43,0,4.3-1.27,4.48-2.99Z"/>
    <path class="cls-1" d="M148.99,206.04l4.39,12.42,4.33-12.42h3.41l-6.05,15.77h-3.53l-6.11-15.77h3.56Z"/>
    <path class="cls-1" d="M177.92,199.82v22h-3.41v-2.7c-1.13,1.84-3.02,2.85-5.54,2.85-4.54,0-7.56-3.29-7.56-8.09s3.05-7.97,7.5-7.97c2.55,0,4.45,1.04,5.6,2.88v-8.95h3.41ZM174.51,213.99c0-3.05-1.99-5.19-4.83-5.19s-4.83,2.16-4.86,5.19c.03,2.99,1.99,5.13,4.86,5.13s4.83-2.13,4.83-5.13Z"/>
    <path class="cls-1" d="M186.78,201.54c0,1.16-.86,2.02-1.99,2.02s-1.99-.86-1.99-2.02.86-2.05,1.99-2.05,1.99.86,1.99,2.05ZM186.48,206.04v15.77h-3.38v-15.77h3.38Z"/>
    <path class="cls-1" d="M206.79,212v9.81h-3.41v-8.86c0-2.37-1.42-3.82-3.79-3.82-2.82.03-4.51,2.13-4.51,4.92v7.77h-3.41v-22h3.41v9.31c1.13-2.22,3.14-3.2,5.84-3.2,3.68,0,5.87,2.31,5.87,6.08Z"/>
    <path class="cls-1" d="M225.67,206.04v15.77h-3.41v-3.08c-1.07,2.19-3.05,3.17-5.63,3.2-3.62,0-5.78-2.31-5.78-6.08v-9.81h3.41v8.86c0,2.37,1.39,3.82,3.68,3.82,2.73-.06,4.33-2.16,4.33-4.92v-7.77h3.41Z"/>
    <path class="cls-1" d="M228.95,227.72c-1.19,0-2.37-.39-3.29-1.07l1.13-2.64c.62.44,1.36.71,2.02.71,1.04,0,1.87-.62,1.87-2.13v-16.54h3.38v16.22c0,3.74-2.58,5.45-5.1,5.45ZM234.47,201.54c0,1.19-.86,2.08-2.1,2.08s-2.08-.89-2.08-2.08.89-2.08,2.08-2.08c1.25,0,2.1.86,2.1,2.08Z"/>
    <path class="cls-1" d="M254.18,213.9c0,4.77-3.35,8.03-8.21,8.03s-8.24-3.26-8.24-8.03,3.35-7.98,8.24-7.98,8.21,3.23,8.21,7.98ZM241.14,213.96c0,3.05,1.99,5.13,4.83,5.13s4.8-2.08,4.8-5.13-1.99-5.13-4.8-5.13-4.83,2.1-4.83,5.13Z"/>
    <path class="cls-1" d="M264.35,208.92c-2.73,0-4.68,2.05-4.68,5.04s1.96,5.04,4.68,5.04c1.99,0,3.59-.65,4.65-1.9l1.9,1.9c-1.42,1.87-3.71,2.93-6.7,2.93-4.68,0-7.95-3.23-7.95-7.97s3.26-8.03,7.95-8.03c2.85,0,5.07.92,6.52,2.58l-1.87,2.19c-1.1-1.13-2.61-1.81-4.51-1.78ZM262.27,199.52l1.87,2.76,1.87-2.76h3.02l-3.2,4.45h-3.38l-3.2-4.45h3.02Z"/>
    <path class="cls-1" d="M287.7,215.23h-11.92c.53,2.43,2.4,3.94,4.89,3.94,1.72,0,3.29-.65,4.45-1.84l1.81,1.93c-1.54,1.69-3.79,2.67-6.52,2.67-4.86,0-8.06-3.23-8.06-7.97s3.29-8,7.97-8.03c5.54,0,7.8,3.62,7.38,9.31ZM284.74,212.74c-.12-2.55-1.81-4.09-4.39-4.09s-4.27,1.57-4.62,4.09h9.01Z"/>
    <path class="cls-1" d="M312.19,206.07v2.28l-9.01,10.67,9.28.03v2.79l-13.49-.03v-2.31l9.01-10.67h-8.75v-2.79l12.96.03Z"/>
    <path class="cls-1" d="M330.12,206.04v14.23c0,4.54-3.23,7.38-8.18,7.38-2.46,0-4.62-.77-6.55-2.08l1.45-2.46c1.48,1.1,3.02,1.72,4.95,1.72,2.99,0,4.95-1.75,4.95-4.48v-1.99c-1.07,1.72-2.85,2.67-5.22,2.67-4.27,0-7.12-3.08-7.12-7.62s2.82-7.47,7-7.5c2.43-.03,4.24.95,5.34,2.67v-2.55h3.38ZM326.74,213.51c0-2.85-1.87-4.83-4.54-4.83s-4.57,2.02-4.6,4.83c.03,2.85,1.87,4.86,4.6,4.86s4.54-2.02,4.54-4.86Z"/>
    <path class="cls-1" d="M349.83,213.9c0,4.77-3.35,8.03-8.21,8.03s-8.24-3.26-8.24-8.03,3.35-7.98,8.24-7.98,8.21,3.23,8.21,7.98ZM336.79,213.96c0,3.05,1.99,5.13,4.83,5.13s4.8-2.08,4.8-5.13-1.99-5.13-4.8-5.13-4.83,2.1-4.83,5.13Z"/>
    <path class="cls-1" d="M368.42,199.82v22h-3.41v-2.7c-1.13,1.84-3.02,2.85-5.54,2.85-4.54,0-7.56-3.29-7.56-8.09s3.05-7.97,7.5-7.97c2.55,0,4.45,1.04,5.6,2.88v-8.95h3.41ZM365.01,213.99c0-3.05-1.99-5.19-4.83-5.19s-4.83,2.16-4.86,5.19c.03,2.99,1.99,5.13,4.86,5.13s4.83-2.13,4.83-5.13Z"/>
    <path class="cls-1" d="M390.2,213.99c0,4.71-2.96,7.95-7.47,7.95-2.52,0-4.42-1.01-5.57-2.85v2.73h-3.41v-22h3.41v8.95c1.16-1.84,3.05-2.85,5.51-2.85,4.48,0,7.53,3.26,7.53,8.06ZM386.76,213.87c0-2.93-1.99-5.1-4.8-5.1s-4.8,2.13-4.8,5.1,1.99,5.16,4.8,5.16,4.8-2.13,4.8-5.16Z"/>
    <path class="cls-1" d="M407.63,215.23h-11.92c.53,2.43,2.4,3.94,4.89,3.94,1.72,0,3.29-.65,4.45-1.84l1.81,1.93c-1.54,1.69-3.79,2.67-6.52,2.67-4.86,0-8.06-3.23-8.06-7.97s3.29-8,7.97-8.03c5.54,0,7.8,3.62,7.38,9.31ZM404.66,212.74c-.12-2.55-1.81-4.09-4.39-4.09s-4.27,1.57-4.62,4.09h9.01Z"/>
    <path class="cls-1" d="M436.68,213.99c0,4.71-2.96,7.95-7.47,7.95-2.52,0-4.42-1.01-5.57-2.85v8.48h-3.41v-21.52h3.41v2.73c1.16-1.84,3.05-2.85,5.51-2.85,4.48,0,7.53,3.26,7.53,8.06ZM433.24,213.87c0-2.93-1.99-5.1-4.8-5.1s-4.8,2.13-4.8,5.1,1.99,5.16,4.8,5.16,4.8-2.13,4.8-5.16Z"/>
    <path class="cls-1" d="M455.2,213.9c0,4.77-3.35,8.03-8.21,8.03s-8.24-3.26-8.24-8.03,3.35-7.98,8.24-7.98,8.21,3.23,8.21,7.98ZM442.16,213.96c0,3.05,1.99,5.13,4.83,5.13s4.8-2.08,4.8-5.13-1.99-5.13-4.8-5.13-4.83,2.1-4.83,5.13Z"/>
    <path class="cls-1" d="M473.79,199.82v22h-3.41v-2.7c-1.13,1.84-3.02,2.85-5.54,2.85-4.54,0-7.56-3.29-7.56-8.09s3.05-7.97,7.5-7.97c2.55,0,4.45,1.04,5.6,2.88v-8.95h3.41ZM470.38,213.99c0-3.05-1.99-5.19-4.83-5.19s-4.83,2.16-4.86,5.19c.03,2.99,1.99,5.13,4.86,5.13s4.83-2.13,4.83-5.13Z"/>
    <path class="cls-1" d="M477.22,227.72c-1.19,0-2.37-.39-3.29-1.07l1.13-2.64c.62.44,1.36.71,2.02.71,1.04,0,1.87-.62,1.87-2.13v-16.54h3.38v16.22c0,3.74-2.58,5.45-5.1,5.45ZM482.73,201.54c0,1.19-.86,2.08-2.1,2.08s-2.08-.89-2.08-2.08.89-2.08,2.08-2.08c1.25,0,2.1.86,2.1,2.08Z"/>
    <path class="cls-1" d="M501.35,215.23h-11.92c.53,2.43,2.4,3.94,4.89,3.94,1.72,0,3.29-.65,4.45-1.84l1.81,1.93c-1.54,1.69-3.79,2.67-6.52,2.67-4.86,0-8.06-3.23-8.06-7.97s3.29-8,7.97-8.03c5.54,0,7.8,3.62,7.38,9.31ZM498.39,212.74c-.12-2.55-1.81-4.09-4.39-4.09s-4.27,1.57-4.62,4.09h9.01Z"/>
    <path class="cls-1" d="M513.83,220.81c-1.25.74-2.55,1.16-3.88,1.16-2.37,0-4.42-1.36-4.42-4.6v-8.18h-2.22v-2.55h2.22v-4.33h3.38v4.33h4.65v2.55h-4.65v7.56c0,1.63.62,2.13,1.69,2.13.71,0,1.45-.24,2.37-.68l.86,2.61Z"/>
    <path class="cls-1" d="M532.06,212v9.81h-3.41v-8.86c0-2.37-1.42-3.82-3.79-3.82-2.61.03-4.24,1.84-4.48,4.3v8.39h-3.41v-15.77h3.41v3.02c1.13-2.19,3.14-3.14,5.81-3.14,3.68,0,5.87,2.31,5.87,6.08Z"/>
    <path class="cls-1" d="M540.3,201.54c0,1.16-.86,2.02-1.99,2.02s-1.99-.86-1.99-2.02.86-2.05,1.99-2.05,1.99.86,1.99,2.05ZM540,206.04v15.77h-3.38v-15.77h3.38Z"/>
    <path class="cls-1" d="M551.26,214.58l-2.67,2.82v4.42h-3.41v-22h3.41v13.28l6.97-7.06h3.91l-5.84,6.11,6.29,9.66h-4.03l-4.62-7.23Z"/>
    <path class="cls-1" d="M576.9,213.9c0,4.77-3.35,8.03-8.21,8.03s-8.24-3.26-8.24-8.03,3.35-7.98,8.24-7.98,8.21,3.23,8.21,7.98ZM563.86,213.96c0,3.05,1.99,5.13,4.83,5.13s4.8-2.08,4.8-5.13-1.99-5.13-4.8-5.13-4.83,2.1-4.83,5.13Z"/>
    <path class="cls-1" d="M580.93,206.04l4.39,12.42,4.33-12.42h3.41l-6.05,15.77h-3.53l-6.11-15.77h3.56Z"/>
    <path class="cls-1" d="M597.38,220.1c0,1.16-.8,1.99-1.87,1.99s-1.87-.83-1.87-1.99.8-1.93,1.87-1.93,1.87.8,1.87,1.93Z"/>
  </g>
  <polygon class="cls-2" points="522.36 117.19 491.68 116.12 483.76 124.83 504.34 126.3 477.8 156.77 472.19 128.65 447.17 128.65 407.16 175.71 426.32 175.58 458.72 137.4 465.85 175.59 480.42 175.68 514.9 135.9 518.43 156.35 526.35 147.64 522.36 117.19"/>
</svg>