<?xml version="1.0" encoding="UTF-8"?><svg id="Layer_2" xmlns="http://www.w3.org/2000/svg" viewBox="0 0 310.03 147.24" width="100" height="47"><g id="Layer_1-2"><g id="Layer_2-2"><g id="A2Go_logotip"><path d="M236.75.06c-35.16-.1-65.49,24.65-72.44,59.11-1.87-.84-3.89-1.27-5.94-1.28l-10.88-.15c-8.25-.04-14.97,6.62-15.01,14.87-.03,6.45,4.09,12.19,10.21,14.24-1.93,6.09-5.18,11.68-9.52,16.36h0c-16.34,17.74-43.96,18.88-61.71,2.55-17.74-16.34-18.88-43.96-2.55-61.71,16.34-17.74,43.96-18.88,61.7-2.55,6.08,5.59,15.53,5.2,21.12-.88,5.59-6.08,5.2-15.53-.88-21.12-29.89-27.56-76.47-25.67-104.03,4.22-27.56,29.89-25.67,76.47,4.22,104.03,29.89,27.56,76.47,25.67,104.03-4.22,5.73-6.22,10.35-13.37,13.65-21.16,15.88,37.39,59.06,54.84,96.46,38.96,37.39-15.88,54.84-59.06,38.96-96.46C292.66,17.8,266.16.18,236.75.06ZM236.25,117.29c-24.12-.11-43.58-19.74-43.48-43.86.11-24.12,19.74-43.58,43.86-43.48,24.12.11,43.58,19.74,43.48,43.86-.13,24.11-19.75,43.56-43.86,43.48Z" style="fill:#0068b2;"/><circle cx="14.51" cy="131.2" r="14.51" style="fill:#0068b2;"/></g></g></g></svg>