<svg xmlns="http://www.w3.org/2000/svg" xmlns:xlink="http://www.w3.org/1999/xlink" xmlns:inkscape="http://www.inkscape.org/namespaces/inkscape" version="1.1" width="79.5117" height="39.1748" viewBox="0 0 79.5117 39.1748">
<defs>
<clipPath id="clip_1">
<path transform="matrix(1,0,0,-1,0,39.1748)" d="M0 39.175H79.512V0H0Z"/>
</clipPath>
</defs>
<g inkscape:groupmode="layer" inkscape:label="Layer 1">
<path transform="matrix(1,0,0,-1,39.1714,12.499001)" d="M0 0H3.401L9.367-10.386H9.413V0H12.074V-14.173H8.7L2.748-3.743H2.703V-14.173H0Z" fill="#63666a"/>
<path transform="matrix(1,0,0,-1,53.1538,12.499001)" d="M0 0H2.839V-11.825H8.142V-14.173H0Z" fill="#63666a"/>
<g clip-path="url(#clip_1)">
<path transform="matrix(1,0,0,-1,65.8891,24.465802)" d="M0 0H2.45C3.771 0 5.316 .281 5.316 1.928 5.316 3.775 3.873 4.093 2.45 4.093H0ZM0 6.28H2.132C3.329 6.28 4.81 6.629 4.81 8.095 4.81 9.738 3.368 9.851 2.068 9.851H0ZM-2.814 11.967H3.144C4.971 11.967 7.711 11.439 7.711 8.332 7.711 6.669 6.578 5.47 4.892 5.165V5.124C6.819 4.94 8.214 3.639 8.214 1.898 8.214-1.575 5.005-2.206 3.222-2.206H-2.814Z" fill="#63666a"/>
<path transform="matrix(1,0,0,-1,19.5844,5.413601)" d="M0 0C-7.834 0-14.176-6.346-14.176-14.172-14.176-21.999-7.834-28.347 0-28.347 7.826-28.347 14.169-21.999 14.169-14.172 14.169-6.346 7.826 0 0 0" fill="#230078"/>
<path transform="matrix(1,0,0,-1,19.5844,23.956002)" d="M0 0C-2.51 0-4.539 2.023-4.539 4.533-4.539 5.351-4.316 6.13-3.933 6.796L-2.83 8.697H1.201L-.904 5.054C-.998 4.902-1.045 4.714-1.045 4.533-1.045 3.955-.577 3.482 0 3.482 .572 3.482 1.047 3.955 1.047 4.533 1.047 5.038 .679 5.47 .193 5.556L1.959 8.625C3.482 7.89 4.531 6.332 4.531 4.533 4.531 2.023 2.498 0 0 0M-12.748-.023-7.717 8.693H-3.68L-8.721-.023Z" fill="#ffffff"/>
</g>
</g>
</svg>
