<svg width="125" height="52" viewBox="0 0 125 52" fill="none" xmlns="http://www.w3.org/2000/svg">
<g id="Page 1 1">
<g id="Artboard 1 1">
<g id="Imported Layers 1">
<path id="Fill 3 1" fill-rule="evenodd" clip-rule="evenodd" d="M25.303 0.848389C39.2424 0.848389 50.6061 12.0605 50.6061 25.9999C50.6061 39.9393 39.2424 51.1514 25.303 51.1514C11.3636 51.1514 0 39.9393 0 25.9999C0 12.0605 11.3636 0.848389 25.303 0.848389ZM25.303 43.8787C35.1515 43.8787 43.1818 35.8484 43.1818 25.9999C43.1818 16.1514 35.1515 8.12112 25.303 8.12112C15.4545 8.12112 7.42425 16.1514 7.42425 25.9999C7.42425 35.8484 15.4545 43.8787 25.303 43.8787ZM11.8182 31.3029L24.2424 34.9393V21.7575L11.8182 18.1211V31.3029ZM26.3636 21.7575V34.9393L38.7879 31.3029V18.1211L26.3636 21.7575Z" fill="#131D4F"/>
<path id="Fill 4 1" fill-rule="evenodd" clip-rule="evenodd" d="M120.303 16.1515C120.303 14.9394 121.212 14.1818 122.424 14.1818C123.637 14.1818 124.546 15.0909 124.546 16.1515C124.546 17.2121 123.637 18.1212 122.424 18.1212C121.212 18.1212 120.303 17.2121 120.303 16.1515ZM119.849 16.1515C119.849 17.5152 121.061 18.5758 122.424 18.5758C123.788 18.5758 125 17.5152 125 16.1515C125 14.7879 123.788 13.7273 122.424 13.7273C120.909 13.7273 119.849 14.7879 119.849 16.1515ZM121.364 17.5152H121.818V16.3031H122.273L123.03 17.5152H123.485L122.576 16.3031C123.03 16.3031 123.333 16 123.333 15.5455C123.333 14.9394 123.03 14.7879 122.273 14.7879H121.061V17.5152H121.364ZM121.818 15.0909H122.424C122.727 15.0909 123.03 15.2424 123.03 15.5455C123.03 15.8485 122.727 16 122.424 16H121.818V15.0909Z" fill="#131D4F"/>
<path id="Fill 5 1" fill-rule="evenodd" clip-rule="evenodd" d="M61.515 20.5463H63.4847C64.8483 20.5463 66.2119 20.6978 66.2119 22.3645C66.2119 24.1826 64.8483 24.3342 63.3331 24.3342H61.515V20.5463ZM54.8483 33.7281H61.818V27.9705H63.3331C64.2422 27.9705 64.8483 28.122 65.3028 28.8796C65.9089 29.9402 65.9089 32.516 66.2119 33.8796H73.4847C72.7271 32.2129 72.8786 29.6372 71.818 27.819C71.2119 26.9099 70.3028 26.1523 68.7877 26.0008C71.3635 25.3948 73.1816 24.0311 73.1816 21.4554C73.1816 18.122 70.4544 16.9099 66.0604 16.9099H54.6968V33.7281H54.8483Z" fill="#131D4F"/>
<path id="Fill 6 1" fill-rule="evenodd" clip-rule="evenodd" d="M74.6973 16.6064H81.667V33.7277H74.6973V16.6064Z" fill="#131D4F"/>
<path id="Fill 7 1" fill-rule="evenodd" clip-rule="evenodd" d="M90.7576 23.4246L95.1516 16.758H103.182L97.1213 24.6367L103.788 33.7277H95.4546L90.9092 26.4549V33.7277H83.9395V16.6064H90.9092V23.4246" fill="#131D4F"/>
<path id="Fill 8 1" fill-rule="evenodd" clip-rule="evenodd" d="M108.636 25.242C108.636 23.5753 108.788 20.545 111.364 20.545C114.091 20.545 114.243 23.7268 114.243 25.242C114.243 27.0602 114.091 29.939 111.364 29.939C108.94 29.939 108.636 27.0602 108.636 25.242ZM121.667 25.242C121.667 19.4844 117.879 16.4541 111.515 16.4541C105.152 16.4541 101.364 19.6359 101.364 25.242C101.364 31.1511 105.152 34.0299 111.515 34.0299C117.879 34.0299 121.667 30.9996 121.667 25.242Z" fill="#131D4F"/>
</g>
</g>
</g>
</svg>
